<svg id="Capa_1" enable-background="new 0 0 512 512" height="512" viewBox="0 0 512 512" width="512" xmlns="http://www.w3.org/2000/svg" xmlns:xlink="http://www.w3.org/1999/xlink"><linearGradient id="SVGID_1_" gradientUnits="userSpaceOnUse" x1="0" x2="512" y1="256" y2="256"><stop offset="0" stop-color="#5aa7ff"/><stop offset="1" stop-color="#9a72ff"/></linearGradient><path d="m500.944 120.115-236-118c-5.631-2.815-12.258-2.815-17.889 0-49.279 24.643-235.619 117.795-236.582 118.317-6.577 3.559-10.473 10.395-10.473 17.571v236c0 7.576 4.28 14.5 11.056 17.889l236 118c5.537 2.768 12.197 2.845 17.889 0l236-118c6.775-3.388 11.055-10.313 11.055-17.889v-236c0-7.6-4.337-14.529-11.056-17.888zm-244.944-77.751 191.278 95.639-191.278 95.639-191.278-95.639zm-216 128 196 98v191.278l-196-98zm236 289.278v-191.278l196-98v191.278z" fill="url(#SVGID_1_)"/></svg>