<svg id="Capa_1" enable-background="new 0 0 512 512" height="512" viewBox="0 0 512 512" width="512" xmlns="http://www.w3.org/2000/svg" xmlns:xlink="http://www.w3.org/1999/xlink"><linearGradient id="SVGID_1_" gradientUnits="userSpaceOnUse" x1="0" x2="512" y1="256" y2="256"><stop offset="0" stop-color="#5aa7ff"/><stop offset="1" stop-color="#9a72ff"/></linearGradient><path d="m289.056 236.333c0-45.364-36.906-82.27-82.27-82.27s-82.27 36.906-82.27 82.27 36.906 82.27 82.27 82.27 82.27-36.906 82.27-82.27zm-82.27 42.27c-23.308 0-42.27-18.962-42.27-42.27s18.962-42.27 42.27-42.27 42.27 18.962 42.27 42.27-18.962 42.27-42.27 42.27zm282.066 49.285v-42.422l19.162-25.609c4.793-6.407 5.307-15.053 1.307-21.982l-27.742-48.051c-4-6.929-11.741-10.805-19.69-9.859l-31.76 3.79-17.807-10.281c2.035-5.492 1.596-11.712-1.429-16.951l-32.936-57.046c-4-6.929-11.742-10.806-19.69-9.859l-38.942 4.647-45.773-26.428-15.447-36.047c-3.151-7.354-10.382-12.123-18.383-12.123h-65.871c-8.001 0-15.232 4.768-18.383 12.123l-15.448 36.047-45.773 26.427-38.941-4.647c-7.946-.945-15.689 2.931-19.69 9.859l-32.936 57.047c-4 6.929-3.487 15.575 1.307 21.981l23.495 31.401v52.855l-23.496 31.402c-4.793 6.406-5.307 15.053-1.307 21.981l32.936 57.046c4 6.929 11.744 10.808 19.69 9.859l38.941-4.647 45.773 26.428 15.447 36.047c3.153 7.356 10.384 12.124 18.385 12.124h65.871c8.001 0 15.232-4.769 18.383-12.123l.125-.292 17.713 10.226 12.598 29.399c3.151 7.354 10.382 12.123 18.383 12.123h55.484c8.001 0 15.232-4.769 18.383-12.123l12.598-29.399 36.739-21.211 31.76 3.789c7.945.954 15.69-2.93 19.69-9.859l27.742-48.051c4-6.929 3.487-15.576-1.307-21.982zm-301.813 85.112-12.873-30.041c-1.701-3.971-4.643-7.283-8.383-9.443l-57.298-33.082c-3.741-2.159-8.08-3.05-12.37-2.539l-32.453 3.872-19.747-34.203 19.58-26.169c2.588-3.458 3.986-7.662 3.986-11.981v-66.163c0-4.319-1.398-8.523-3.986-11.981l-19.58-26.169 19.747-34.203 32.453 3.872c4.289.51 8.629-.379 12.37-2.539l57.298-33.082c3.741-2.16 6.682-5.472 8.383-9.443l12.873-30.041h39.494l12.873 30.041c1.701 3.97 4.643 7.283 8.383 9.443l57.299 33.082c3.74 2.159 8.078 3.05 12.37 2.539l32.453-3.872 19.747 34.202-19.58 26.169c-2.588 3.459-3.986 7.662-3.986 11.982v66.163c0 4.32 1.398 8.523 3.986 11.982l19.58 26.169-19.747 34.202-32.453-3.872c-4.291-.513-8.629.378-12.37 2.539l-57.299 33.082c-3.741 2.16-6.682 5.473-8.383 9.443l-12.873 30.041zm265.799-66.476 15.247 20.378-14.553 25.208-25.271-3.016c-4.292-.509-8.629.379-12.37 2.539l-48.264 27.865c-3.741 2.16-6.682 5.473-8.383 9.443l-10.024 23.393h-29.106l-10.024-23.393c-1.702-3.971-4.643-7.283-8.383-9.443l-26.779-15.461 44.399-25.634 38.942 4.647c7.945.948 15.689-2.931 19.69-9.859l32.936-57.046c4-6.929 3.487-15.576-1.307-21.982l-23.495-31.401v-52.855l2.815-3.763 26.985 15.58c3.74 2.16 8.078 3.049 12.37 2.538l25.271-3.015 14.553 25.208-15.247 20.377c-2.588 3.459-3.986 7.662-3.986 11.982v55.73c-.002 4.318 1.396 8.521 3.984 11.98z" fill="url(#SVGID_1_)"/></svg>