<svg height="512pt" viewBox="0 -118 512 512" width="512pt" xmlns="http://www.w3.org/2000/svg" xmlns:xlink="http://www.w3.org/1999/xlink"><linearGradient id="a" gradientUnits="userSpaceOnUse" x1="0" x2="512" y1="138" y2="138"><stop offset="0" stop-color="#5aa7ff"/><stop offset="1" stop-color="#9a72ff"/></linearGradient><path d="m492 0h-472c-11.046875 0-20 8.953125-20 20v59c0 11.046875 8.953125 20 20 20 21.503906 0 39 17.496094 39 39s-17.496094 39-39 39c-11.046875 0-20 8.953125-20 20v59c0 11.046875 8.953125 20 20 20h472c11.046875 0 20-8.953125 20-20v-236c0-11.046875-8.953125-20-20-20zm-336 236h-116v-21.5625c33.90625-8.878906 59-39.785156 59-76.4375s-25.09375-67.558594-59-76.4375v-21.5625h116zm316 0h-276v-196h276zm0 0" fill="url(#a)"/></svg>